<mxfile host="app.diagrams.net" agent="Mozilla/5.0 (Windows NT 10.0; Win64; x64) AppleWebKit/537.36 (KHTML, like Gecko) Chrome/122.0.0.0 Safari/537.36 Edg/122.0.0.0" version="26.0.11">
  <diagram id="hdXJpxE3_vxk3OTDZywU" name="第 1 页">
    <mxGraphModel dx="1670" dy="905" grid="1" gridSize="10" guides="1" tooltips="1" connect="1" arrows="1" fold="1" page="1" pageScale="1" pageWidth="220" pageHeight="229" math="0" shadow="0">
      <root>
        <mxCell id="0" />
        <mxCell id="1" parent="0" />
        <mxCell id="3" value="" style="shape=mxgraph.signs.animals.snake;html=1;pointerEvents=1;fillColor=#d0cee2;verticalLabelPosition=bottom;verticalAlign=top;align=center;strokeWidth=8;perimeterSpacing=0;labelBackgroundColor=#CCCCCC;shadow=0;strokeColor=#56517e;gradientColor=#E5CCFF;" parent="1" vertex="1">
          <mxGeometry x="140" y="80" width="500" height="500" as="geometry" />
        </mxCell>
        <mxCell id="cv0U_vuuKCpcTmHPWeIW-3" value="" style="verticalLabelPosition=bottom;html=1;verticalAlign=top;strokeWidth=4;shape=mxgraph.lean_mapping.sequenced_pull_ball;fillColor=#d0cee2;strokeColor=#56517e;gradientColor=#E5CCFF;" vertex="1" parent="1">
          <mxGeometry x="580" y="240" width="60" height="60" as="geometry" />
        </mxCell>
        <mxCell id="cv0U_vuuKCpcTmHPWeIW-4" value="" style="sketch=0;shadow=0;dashed=0;html=1;strokeColor=none;labelPosition=center;verticalLabelPosition=bottom;verticalAlign=top;outlineConnect=0;align=center;shape=mxgraph.office.databases.database_cube;fillColor=#2072B8;" vertex="1" parent="1">
          <mxGeometry y="28" width="47" height="52" as="geometry" />
        </mxCell>
        <mxCell id="cv0U_vuuKCpcTmHPWeIW-5" value="" style="sketch=0;shadow=0;dashed=0;html=1;strokeColor=none;labelPosition=center;verticalLabelPosition=bottom;verticalAlign=top;outlineConnect=0;align=center;shape=mxgraph.office.databases.database_cube;fillColor=#2072B8;" vertex="1" parent="1">
          <mxGeometry x="740" y="28" width="47" height="52" as="geometry" />
        </mxCell>
        <mxCell id="cv0U_vuuKCpcTmHPWeIW-6" value="" style="sketch=0;shadow=0;dashed=0;html=1;strokeColor=none;labelPosition=center;verticalLabelPosition=bottom;verticalAlign=top;outlineConnect=0;align=center;shape=mxgraph.office.databases.database_cube;fillColor=#2072B8;" vertex="1" parent="1">
          <mxGeometry y="573" width="47" height="52" as="geometry" />
        </mxCell>
        <mxCell id="cv0U_vuuKCpcTmHPWeIW-7" value="" style="sketch=0;shadow=0;dashed=0;html=1;strokeColor=none;labelPosition=center;verticalLabelPosition=bottom;verticalAlign=top;outlineConnect=0;align=center;shape=mxgraph.office.databases.database_cube;fillColor=#2072B8;" vertex="1" parent="1">
          <mxGeometry x="740" y="573" width="47" height="52" as="geometry" />
        </mxCell>
      </root>
    </mxGraphModel>
  </diagram>
</mxfile>
